<?xml version="1.0" encoding="UTF-8"?>
<svg id="a" xmlns="http://www.w3.org/2000/svg" viewBox="0 0 725.7 416.2">
  <g id="b">
    <path class="themed defaultFill-HeaderText" fill="#000" d="M71.9,254.4h15.6l-9.7,52.2h-15.6l9.7-52.2h0ZM75.1,237h15.6l-2.2,11.8h-15.6l2.2-11.8Z" />
    <path class="themed defaultFill-HeaderText" fill="#000" d="M118.3,269c0-1.1.5-4-4.1-4s-4.8,2.1-5.1,3.5c-.5,2.4,3.1,4,7.1,5.2,8.4,2.4,17.3,5.1,15.1,16.4-2.1,11.5-13.1,18.2-24.6,18.2s-19.1-3.6-18-17.3h15.5c-.3,4.8,4.3,4.8,5,4.8,2.6,0,5.7-1.5,6.2-4,.7-3.6-3.1-4-12.3-7.9-6.4-2.2-11.2-6.6-9.9-13.6,2-10.8,12.6-17.7,23.4-17.7s18.2,2.7,17,16.4h-15.3Z" />
    <path fill="none" d="M550.8,127.1c10.1,0,18.4-3.5,25.4-10.6,7-7.2,10.4-15.7,10.4-26.1s-3.4-18.9-10.4-26-15.3-10.6-25.4-10.6-18.4,3.5-25.4,10.6c-7,7.2-10.4,15.7-10.4,26.1s3.4,18.9,10.4,26,15.3,10.6,25.4,10.6h0Z" />
    <path fill="none" d="M126.2,162.5c-1.1,1.5-1.7,3.2-1.9,5.2-.2,1.7,0,2.3,0,2.3.2.7.5,1.5.9,2.2,1.6,2.8,5.1,4.5,9.5,4.8,2.2.2,4.4,0,7-.3,1.2-.2,2.3-.4,3.6-.7,1-.3,2.2-.6,3.2-1,4.2-1.5,8.2-4,11.8-7.3h0c4.5-4.1,8.3-8.5,11.2-13-1,0-1.9-.2-2.7-.3-2.8-.3-5.5-.6-8.2-.8-1.5-.1-3.1-.2-4.9-.2h-3c-6.4.3-11.2,1-15.4,2.2-3.7,1.1-8.6,3.1-11.2,6.9h.1Z" />
    <path class="themed defaultFill-HeaderText" fill="#000" d="M321.1,145.8c13.5,0,26.5-3.7,38.6-11.1,12.1-7.4,20.9-17,26.1-28.5l2.5-5.6h-22.8l-1.1,2c-4,6.7-10,12.3-18,16.7-8.1,4.4-16.5,6.6-25.2,6.6-14.9,0-27.1-5-37.4-15.3s-15.2-22.6-15.2-37.6,5-27.3,15.3-37.7c10.2-10.3,22.5-15.4,37.4-15.4s16.5,2.1,24.4,6.4c7.8,4.2,13.7,9.7,17.5,16.2l1.1,2h22.9l-2.5-5.6c-5.1-11.3-13.7-20.7-25.6-28-12-7.3-24.7-10.9-37.9-10.9-20.6,0-38.3,7.1-52.5,21.2-14.3,14.1-21.6,31.5-21.6,51.8s7.2,37.7,21.6,51.8c14.3,14,32,21.1,52.5,21.1h0l-.1-.1Z" />
    <path class="themed defaultFill-HeaderText" fill="#000" d="M413.7,86.9c0-10.9,2.4-19.3,7.1-25,4.6-5.5,11-8.2,19.7-8.2s14.9,2.7,19.5,8.1c4.8,5.6,7.1,13.6,7.1,23.7v57.9h20.6v-57.6c0-15.9-4.2-28.6-12.5-37.7-8.4-9.2-20.1-13.9-34.8-13.9s-19.7,3-26.7,9.1V2.3h-20.6v141.2h20.6v-56.6h0Z" />
    <path class="themed defaultFill-HeaderText" fill="#000" d="M550.3,145.8c14,0,26-4.3,35.8-12.8v10.5h20.6V37h-20.6v10.6c-9.8-8.5-21.8-12.9-35.8-12.9s-28.8,5.4-39.6,16.1c-10.8,10.7-16.3,24-16.3,39.5s5.5,28.7,16.3,39.4c10.8,10.7,24.1,16.1,39.6,16.1h0ZM515,90.5c0-10.4,3.4-18.9,10.4-26.1,7-7.1,15.3-10.6,25.4-10.6s18.4,3.5,25.4,10.6,10.4,15.6,10.4,26-3.4,18.9-10.4,26.1c-7,7.1-15.3,10.6-25.4,10.6s-18.4-3.4-25.4-10.6c-7-7.1-10.4-15.6-10.4-26h0Z" />
    <path class="themed defaultFill-HeaderText" fill="#000" d="M702.3,37V2.5h-20.6v34.5h-18v.4h-.5c-10.1.4-18.2,3.2-24,8.5v-8.9h-20.5v106.3c-13.9,4.1-29.4,7.9-46.5,11.3-26.7,5.3-55.5,8.7-85.7,10.1-27.8,1.3-57,1.1-86.9-.6-28.1-1.6-57.2-4.4-86.4-8.6-11.4-1.6-22.3-3.4-34-5.3l-9-1.5c-15.5-2.5-29.9-4.5-43.8-6.3-8.6-1.1-17.4-2-25.7-2.7,4.5-10.1,7.5-18.1,8.4-20.5l33.4-82.2h-22.4l-23.5,60-23.6-60h-22.4l34.9,85.9-.2.6c-.4,1.1-.8,2.2-1.2,3.3l-.7,1.9c-1.5,3.6-3,7.3-4,9.6-3.6,0-6.9,0-10,.1-3,.1-5.9.3-8.9.6-2.7.2-5.7.6-9.1,1.3-1.8.3-3.6.7-5.3,1.1V4.4h-8.2l-64.7,81.4L8,4.4H0v139.1h22.8V56.8c.8,1.1,1.7,2.2,2.5,3.2l44.3,56.7h6.4l44.9-56.6c.8-1,1.7-2.1,2.5-3.3v86.7h14c-1.2.4-2.4.8-3.5,1.2-5.7,2.1-12.1,5.1-16.7,11.1-2.3,3-3.8,6.7-4.3,10.5-.1.9-.2,1.8-.3,2.7v1.5c0,.7,0,1.3.1,1.9.3,2,1,3.9,2,5.9,1.8,3.4,4.6,6.4,8.2,8.5,2.9,1.8,6.3,3,10.3,3.6,2.2.4,4.6.6,7.1.6h2.9c1.6,0,3.3-.2,4.8-.4,1.7-.2,3.4-.5,5-.9,6.1-1.4,12.2-4.1,18.2-8.1,6.1-4.1,10.3-7.8,14.2-12.5,3.4-4.2,5.7-8,7.4-11.2l2.9.3c9.2.9,18.6,1.9,27.8,3,13.7,1.6,27.7,3.6,43,5.9l10,1.6c11,1.7,22.3,3.5,33.6,5,30,3.9,59.8,6.5,88.6,7.7,32,1.3,61.2.9,89.3-1.1,32.6-2.4,61.4-6.6,87.9-12.9,35-8.3,63.5-18.2,84.6-29.3l2.2-1.1-.2-9.8-5.5,2.5c-5.3,2.4-11.1,4.8-17.4,7.1v-47.2c0-10.1,2.7-19.3,6.9-23.6,5.8-5.8,11.6-8.8,17.5-9.3l2.7-.2h15.3v87.3h20.6V56.2h23.3v-19.3h-23.3l-.3.1ZM155.8,153.4c1.8,0,3.4,0,4.9.2,2.7.2,5.4.4,8.2.8.8,0,1.7.2,2.7.3-2.9,4.5-6.7,8.9-11.2,13h0c-3.6,3.4-7.5,5.8-11.8,7.4-1.1.4-2.2.7-3.2,1-1.3.3-2.4.6-3.6.7-2.6.4-4.8.5-7,.3-4.4-.3-7.8-2.1-9.5-4.8-.4-.7-.7-1.4-.9-2.2v-2.3c.2-1.9.8-3.7,1.9-5.2,2.6-3.7,7.5-5.8,11.2-6.9,4.2-1.2,8.9-1.9,15.4-2.2h3l-.1-.1Z" />
    <path class="opaqueOutline" fill="#fff" d="M642.6,256.5h0c-13-13.6-34-20.2-64.3-20.2s-37.8,3.3-52.8,9.9l9-42.2h-75.2l-9.5,44.6c-11.2-7.1-25.8-10.8-42.5-10.8s-14.3.9-21.1,2.7h-38.1l6.3-29.8h-172l-34.2,167.6h136.1l-8,37.7h75.2l7.9-37c7.4,2.4,15.7,3.6,24.8,3.6,13.7,0,27-2.7,38.9-7.8l-.8,3.6h75.2l1.8-8.5c13.3,8.5,31.8,12.8,55.1,12.8,48.8,0,80.4-18,96.8-55.2.1-.4,3.5-8.5,4.1-18.7l.8-13.3c.7-15.8-3.8-28.9-13.4-38.9h0l-.1-.1Z" isolation="isolate" />
    <polygon fill="#ce1141" points="513.6 221 472.9 221 467.6 245.6 508.4 245.6 513.6 221" />
    <path fill="#ce1141" d="M296.9,399.3h40.7l10-47.1h.4c5.3,7.7,17.9,13.6,35.9,13.6,30.9,0,54.8-15.9,66.2-38l-7.2,33.7h40.7l8-37.5c.2,28.4,22.8,41.7,62.6,41.7s68.6-16.3,81.3-45.1h-43.1c-5.8,12.1-17,18.2-31.7,18.2s-28.5-10.6-24.5-29.4,17.8-29.4,36.8-29.4,22.8,5.3,23.8,14.5h42.2c1.4-30.5-23.4-41.4-60.9-41.4s-68.1,14-80.5,42.2l8.1-38h-40.7l-7.5,35.3c-1.8-24.5-20.4-38-50.4-38s-32.2,6-43.1,16.5h-.4l2.9-13.8h-39.6l-15.8,74.5h-90.5l4.3-23.4h80.8l6-28.4h-80.8l4.4-22.9h91.7l6.3-29.6h-137.4l-27.3,133.9h136.2l-8,37.7h0l.1.2ZM356.7,309.7c3.4-16.1,15.6-26.5,34.6-26.5s26.9,9.2,23.2,26.5c-3.7,17.3-15.8,26.5-34.5,26.5s-26.8-10.4-23.4-26.5h.1Z" />
  </g>
</svg>